HIERARCHY
ROOT Hips
{
    OFFSET   0.000000   0.000000   0.000000
    CHANNELS 6 Xposition Yposition Zposition Zrotation Xrotation Yrotation
    JOINT Chest
    {
        OFFSET   0.000000   8.007240   0.000000
        CHANNELS 3 Zrotation Xrotation Yrotation
        JOINT Chest2
        {
            OFFSET   0.000000  22.077100   0.000000
            CHANNELS 3 Zrotation Xrotation Yrotation
            JOINT Neck
            {
                OFFSET   0.000000  23.254800   0.000000
                CHANNELS 3 Zrotation Xrotation Yrotation
                JOINT Head
                {
                    OFFSET   0.000000  14.370000   1.956600
                    CHANNELS 3 Zrotation Xrotation Yrotation
                    End Site
                    {
                        OFFSET   0.000000  19.566000   0.000000
                    }
                }
            }
            JOINT LeftCollar
            {
                OFFSET   3.911900  19.017000  -0.467064
                CHANNELS 3 Zrotation Xrotation Yrotation
                JOINT LeftShoulder
                {
                    OFFSET  10.383700   0.000000   0.000000
                    CHANNELS 3 Zrotation Xrotation Yrotation
                    JOINT LeftElbow
                    {
                        OFFSET  26.662100   0.001476   0.000517
                        CHANNELS 3 Zrotation Xrotation Yrotation
                        JOINT LeftWrist
                        {
                            OFFSET  28.869000  -0.000025  -0.000106
                            CHANNELS 3 Zrotation Xrotation Yrotation
                            JOINT LeftFinger0
                            {
                                OFFSET   2.044660  -2.323460   3.252850
                                CHANNELS 3 Zrotation Xrotation Yrotation
                                JOINT LeftFinger01
                                {
                                    OFFSET   3.088130   0.000000   0.000000
                                    CHANNELS 3 Zrotation Xrotation Yrotation
                                    JOINT LeftFinger02
                                    {
                                        OFFSET   2.639460   0.000000   0.000000
                                        CHANNELS 3 Zrotation Xrotation Yrotation
                                        End Site
                                        {
                                            OFFSET   2.582190   0.000000   0.000000
                                        }
                                    }
                                }
                            }
                            JOINT LeftFinger1
                            {
                                OFFSET   8.364480   0.000000   3.252850
                                CHANNELS 3 Zrotation Xrotation Yrotation
                                JOINT LeftFinger11
                                {
                                    OFFSET   4.646930   0.000000   0.000000
                                    CHANNELS 3 Zrotation Xrotation Yrotation
                                    JOINT LeftFinger12
                                    {
                                        OFFSET   2.323460   0.000000   0.000000
                                        CHANNELS 3 Zrotation Xrotation Yrotation
                                        End Site
                                        {
                                            OFFSET   2.273050   0.000000   0.000000
                                        }
                                    }
                                }
                            }
                            JOINT LeftFinger2
                            {
                                OFFSET   8.364490   0.000015   1.078090
                                CHANNELS 3 Zrotation Xrotation Yrotation
                                JOINT LeftFinger21
                                {
                                    OFFSET   5.111620   0.000000   0.000000
                                    CHANNELS 3 Zrotation Xrotation Yrotation
                                    JOINT LeftFinger22
                                    {
                                        OFFSET   2.788160   0.000016   0.000000
                                        CHANNELS 3 Zrotation Xrotation Yrotation
                                        End Site
                                        {
                                            OFFSET   2.727660   0.000000   0.000000
                                        }
                                    }
                                }
                            }
                            JOINT LeftFinger3
                            {
                                OFFSET   7.899780   0.000017  -1.078090
                                CHANNELS 3 Zrotation Xrotation Yrotation
                                JOINT LeftFinger31
                                {
                                    OFFSET   4.646930   0.000000   0.000000
                                    CHANNELS 3 Zrotation Xrotation Yrotation
                                    JOINT LeftFinger32
                                    {
                                        OFFSET   2.323470   0.000000   0.000000
                                        CHANNELS 3 Zrotation Xrotation Yrotation
                                        End Site
                                        {
                                            OFFSET   2.273050   0.000000   0.000000
                                        }
                                    }
                                }
                            }
                            JOINT LeftFinger4
                            {
                                OFFSET   7.435090   0.000000  -3.252850
                                CHANNELS 3 Zrotation Xrotation Yrotation
                                JOINT LeftFinger41
                                {
                                    OFFSET   3.717550   0.000000   0.000000
                                    CHANNELS 3 Zrotation Xrotation Yrotation
                                    JOINT LeftFinger42
                                    {
                                        OFFSET   1.858770   0.000000   0.000000
                                        CHANNELS 3 Zrotation Xrotation Yrotation
                                        End Site
                                        {
                                            OFFSET   1.818440   0.000000   0.000000
                                        }
                                    }
                                }
                            }
                        }
                    }
                }
            }
            JOINT RightCollar
            {
                OFFSET  -3.911900  19.017000  -0.467063
                CHANNELS 3 Zrotation Xrotation Yrotation
                JOINT RightShoulder
                {
                    OFFSET -10.383700   0.000019   0.000000
                    CHANNELS 3 Zrotation Xrotation Yrotation
                    JOINT RightElbow
                    {
                        OFFSET -26.662100   0.001175   0.000102
                        CHANNELS 3 Zrotation Xrotation Yrotation
                        JOINT RightWrist
                        {
                            OFFSET -28.869000   0.000016  -0.000079
                            CHANNELS 3 Zrotation Xrotation Yrotation
                            JOINT RightFinger0
                            {
                                OFFSET  -2.044660  -2.323490   3.252850
                                CHANNELS 3 Zrotation Xrotation Yrotation
                                JOINT RightFinger01
                                {
                                    OFFSET  -3.088140   0.000000   0.000000
                                    CHANNELS 3 Zrotation Xrotation Yrotation
                                    JOINT RightFinger02
                                    {
                                        OFFSET  -2.639460   0.000000   0.000000
                                        CHANNELS 3 Zrotation Xrotation Yrotation
                                        End Site
                                        {
                                            OFFSET  -2.582190   0.000000   0.000000
                                        }
                                    }
                                }
                            }
                            JOINT RightFinger1
                            {
                                OFFSET  -8.364480   0.000000   3.252850
                                CHANNELS 3 Zrotation Xrotation Yrotation
                                JOINT RightFinger11
                                {
                                    OFFSET  -4.646930   0.000000   0.000000
                                    CHANNELS 3 Zrotation Xrotation Yrotation
                                    JOINT RightFinger12
                                    {
                                        OFFSET  -2.323470   0.000000   0.000000
                                        CHANNELS 3 Zrotation Xrotation Yrotation
                                        End Site
                                        {
                                            OFFSET  -2.273050   0.000000   0.000000
                                        }
                                    }
                                }
                            }
                            JOINT RightFinger2
                            {
                                OFFSET  -8.364480   0.000000   1.078090
                                CHANNELS 3 Zrotation Xrotation Yrotation
                                JOINT RightFinger21
                                {
                                    OFFSET  -5.111620   0.000000   0.000000
                                    CHANNELS 3 Zrotation Xrotation Yrotation
                                    JOINT RightFinger22
                                    {
                                        OFFSET  -2.788160   0.000000   0.000000
                                        CHANNELS 3 Zrotation Xrotation Yrotation
                                        End Site
                                        {
                                            OFFSET  -2.727660   0.000000   0.000000
                                        }
                                    }
                                }
                            }
                            JOINT RightFinger3
                            {
                                OFFSET  -7.899780   0.000000  -1.078090
                                CHANNELS 3 Zrotation Xrotation Yrotation
                                JOINT RightFinger31
                                {
                                    OFFSET  -4.646930   0.000000   0.000000
                                    CHANNELS 3 Zrotation Xrotation Yrotation
                                    JOINT RightFinger32
                                    {
                                        OFFSET  -2.323470   0.000000   0.000000
                                        CHANNELS 3 Zrotation Xrotation Yrotation
                                        End Site
                                        {
                                            OFFSET  -2.273050   0.000000   0.000000
                                        }
                                    }
                                }
                            }
                            JOINT RightFinger4
                            {
                                OFFSET  -7.435090   0.000000  -3.252850
                                CHANNELS 3 Zrotation Xrotation Yrotation
                                JOINT RightFinger41
                                {
                                    OFFSET  -3.717550   0.000000   0.000000
                                    CHANNELS 3 Zrotation Xrotation Yrotation
                                    JOINT RightFinger42
                                    {
                                        OFFSET  -1.858770   0.000000   0.000000
                                        CHANNELS 3 Zrotation Xrotation Yrotation
                                        End Site
                                        {
                                            OFFSET  -1.818440   0.000000   0.000000
                                        }
                                    }
                                }
                            }
                        }
                    }
                }
            }
        }
    }
    JOINT LeftHip
    {
        OFFSET   9.783040   0.000000   0.000000
        CHANNELS 3 Zrotation Xrotation Yrotation
        JOINT LeftKnee
        {
            OFFSET   0.000032 -41.789100  -0.002222
            CHANNELS 3 Zrotation Xrotation Yrotation
            JOINT LeftAnkle
            {
                OFFSET   0.000087 -41.133200  -0.000135
                CHANNELS 3 Zrotation Xrotation Yrotation
                JOINT LeftToe
                {
                    OFFSET   0.000000  -6.358960  14.674500
                    CHANNELS 3 Zrotation Xrotation Yrotation
                    End Site
                    {
                        OFFSET   0.000000   0.000000   3.913200
                    }
                }
            }
        }
    }
    JOINT RightHip
    {
        OFFSET  -9.783040   0.000000   0.000000
        CHANNELS 3 Zrotation Xrotation Yrotation
        JOINT RightKnee
        {
            OFFSET   0.000047 -41.789100  -0.000896
            CHANNELS 3 Zrotation Xrotation Yrotation
            JOINT RightAnkle
            {
                OFFSET  -0.000117 -41.133300  -0.000248
                CHANNELS 3 Zrotation Xrotation Yrotation
                JOINT RightToe
                {
                    OFFSET   0.000000  -6.358970  14.674500
                    CHANNELS 3 Zrotation Xrotation Yrotation
                    End Site
                    {
                        OFFSET   0.000000   0.000000   3.913200
                    }
                }
            }
        }
    }
}
MOTION
Frames: 4
Frame Time:   0.016667
 -0.300199  88.797300  -7.198560  -2.667000 -13.873300  -3.231320   6.627530  24.145200  -0.213438  15.823500  48.045200  -4.553050   0.770099 -14.285400   0.190105   1.508440 -28.949000  11.229900  -7.985960  -4.859210  -4.625670 -46.180800  39.352700 -32.974200  -5.879960 -25.260900 -19.568100   1.847000 -14.391900   7.232980  43.051200  30.982900 -65.920700 -22.138400  -0.003947   0.003145  -6.069170  -0.002777  -0.003084 -35.602800   6.924960  -9.558920 -29.603500   0.001478  -0.003851 -20.722400   0.002492  -0.000990 -28.557800   2.742070  -5.023520 -38.627100   0.002719  -0.001722 -25.725600   0.001283  -0.001001 -28.551400   0.836637  -1.537370 -36.890500   0.003057  -0.001884 -24.569000   0.002211   0.000706 -36.074600  -0.018555   0.025404 -54.112100  -0.004559   0.002513 -36.038600  -0.001819  -0.001392  -3.027740 -10.001000   9.339580  56.937200  32.963200 -16.904400 -13.225400  -0.212625 102.567000   3.706550  -6.399860  33.992900 -28.560200  26.013200  60.606000  44.905800  -0.000143  -0.003415  20.639200  -0.000563   0.008991  34.854000   8.401400  11.849200  29.232200   0.000164  -0.000529  20.462500   0.002148  -0.000448  27.187200   4.484080   8.656750  29.343200   0.000724  -0.003501  19.542600   0.000000  -0.004547  24.234200   0.660113   1.468390  24.242700   0.001934   0.004693  16.145600   0.000368   0.000764  16.432600  -2.748080  -9.227680  24.981100   0.007442   0.005066  16.637400   0.002890  -0.000529   0.614963   5.320470   7.927070   8.770260  16.270300  -5.178990  -6.023290  -7.413710  -1.367300   0.000000   0.000000   0.000000   0.265594   3.648900  -9.104750  -0.917379  10.400600   6.229790  -2.674830  -0.364991   5.940560   0.000000   0.000000   0.000000
 -0.292767  88.803800  -7.152350  -2.689470 -13.912200  -3.197630   6.634400  24.089400  -0.251499  15.839900  47.929100  -4.620450   0.732247 -14.232800   0.180133   1.437840 -28.844100  11.119100  -8.030190  -4.838160  -4.543060 -46.257000  39.321700 -32.988500  -5.820680 -25.331000 -19.320200   1.876960 -14.370000   7.319410  43.007800  30.850800 -65.955300 -22.000400  -0.003702   0.003167  -6.000170  -0.002759  -0.003124 -35.611800   7.062960  -9.741150 -29.627300   0.001448  -0.003795 -20.739100   0.002452  -0.000956 -28.551600   2.849350  -5.220390 -38.697500   0.002616  -0.001672 -25.772500   0.001233  -0.001000 -28.554400   0.946115  -1.738290 -36.982100   0.002914  -0.001877 -24.630000   0.002196   0.000749 -36.145900  -0.036279   0.049357 -54.219200  -0.004632   0.002504 -36.110000  -0.001814  -0.001382  -2.925490  -9.881160   9.513080  56.810200  33.016600 -16.443000 -13.044900  -0.562536 102.155000   4.345180  -6.443810  33.663600 -29.016300  26.688800  60.488500  44.538900  -0.000147  -0.003411  20.330800  -0.000666   0.009118  34.682200   7.486530  10.648300  28.940000   0.000205  -0.000477  20.258000   0.002095  -0.000448  27.096700   4.419110   8.566530  28.859700   0.000949  -0.003544  19.220600   0.000105  -0.004545  24.019000   0.678802   1.522730  24.027900   0.001901   0.004620  16.002500   0.000298   0.000878  16.424400  -2.644260  -8.969540  24.966900   0.007380   0.005140  16.628000   0.002848  -0.000584   0.627942   5.354290   7.933620   8.786070  16.285200  -5.215250  -6.004230  -7.446850  -1.376360  -0.000000   0.000000   0.000000   0.294792   3.680500  -9.114870  -0.928602  10.455000   6.258300  -2.661260  -0.418329   5.893820  -0.000000   0.000000   0.000000
 -0.277867  88.809400  -7.093570  -2.694790 -13.967000  -3.185690   6.617670  24.019300  -0.268472  15.796200  47.788200  -4.635600   0.702515 -14.173700   0.172124   1.372240 -28.725600  11.000600  -8.053140  -4.792420  -4.428920 -46.461600  39.220600 -32.961600  -5.806100 -25.362800 -19.122700   1.906260 -14.349400   7.360720  42.994600  30.751500 -66.005200 -21.889100  -0.003481   0.003186  -5.944540  -0.002744  -0.003179 -35.630600   7.171810  -9.881000 -29.659900   0.001419  -0.003739 -20.762000   0.002412  -0.000922 -28.550400   2.926450  -5.360640 -38.809000   0.002513  -0.001623 -25.846800   0.001184  -0.000999 -28.563600   1.024300  -1.880830 -37.132000   0.002771  -0.001868 -24.729900   0.002183   0.000792 -36.262000  -0.065053   0.088259 -54.393300  -0.004706   0.002495 -36.226000  -0.001808  -0.001374  -2.815410  -9.749100   9.700050  56.728200  32.975600 -16.243000 -13.231500  -0.812658 101.776000   4.593700  -6.622180  33.103400 -29.664100  27.461000  60.509700  44.045300  -0.000175  -0.003401  19.854400  -0.000789   0.009248  34.510300   6.489050   9.323570  28.660700   0.000247  -0.000425  20.062500   0.002041  -0.000451  27.009600   4.365610   8.493870  28.406600   0.001144  -0.003583  18.918800   0.000211  -0.004545  23.897900   0.746593   1.689820  23.909500   0.001865   0.004545  15.923700   0.000234   0.000988  16.452600  -2.547760  -8.566110  24.964900   0.007326   0.005211  16.626600   0.002805  -0.000638   0.620113   5.428290   7.935470   8.790200  16.300700  -5.222480  -5.984890  -7.483670  -1.377760   0.000000   0.000000   0.000000   0.304677   3.699710  -9.133020  -0.955126  10.564300   6.331780  -2.649620  -0.481642   5.817670  -0.000000   0.000000  -0.000000
 -0.258826  88.814600  -7.022810  -2.669610 -14.043300  -3.213160   6.577010  23.936700  -0.265136  15.679400  47.627000  -4.584520   0.682131 -14.110700   0.166374   1.330400 -28.598800  10.896500  -8.045640  -4.692420  -4.312010 -46.785800  39.002700 -32.858300  -5.790690 -25.255800 -18.995600   1.929670 -14.386400   7.310640  43.003300  30.760300 -66.067800 -21.867200  -0.003289   0.003197  -5.933600  -0.002741  -0.003244 -35.641700   7.190900  -9.902370 -29.671100   0.001390  -0.003690 -20.769800   0.002375  -0.000894 -28.554800   2.935080  -5.374940 -38.903300   0.002406  -0.001575 -25.909600   0.001132  -0.000993 -28.573900   1.034820  -1.898960 -37.273500   0.002626  -0.001860 -24.824200   0.002170   0.000833 -36.369500  -0.091530   0.124098 -54.554500  -0.004783   0.002485 -36.333300  -0.001808  -0.001363  -2.675640  -9.660930   9.883460  56.682900  32.770700 -16.306100 -13.633500  -0.900160 101.420000   4.608300  -7.138230  32.402400 -30.339600  28.461700  60.954900  43.504300  -0.000240  -0.003384  19.329200  -0.000935   0.009383  34.380800   5.579980   8.071240  28.461000   0.000278  -0.000371  19.922700   0.002004  -0.000460  26.957900   4.210060   8.208720  28.071900   0.001315  -0.003616  18.695900   0.000295  -0.004545  23.913500   0.879332   1.988070  23.930400   0.001825   0.004464  15.937600   0.000196   0.001090  16.701300  -2.517300  -8.314410  25.322700   0.007294   0.005281  16.864900   0.002774  -0.000695   0.580874   5.623440   7.902660   8.753470  16.236600  -5.156750  -5.970420  -7.514930  -1.356420   0.000000   0.000000   0.000000   0.284040   3.711040  -9.151040  -0.999655  10.701700   6.448640  -2.645520  -0.551179   5.756680   0.000000   0.000000   0.000000
